<svg id="visual" viewBox="0 0 900 600" width="900" height="600" xmlns="http://www.w3.org/2000/svg" xmlns:xlink="http://www.w3.org/1999/xlink" version="1.1"><g stroke-width="1" stroke-linejoin="bevel"><path d="M437 369L370 499L468 374Z" fill="#f5f5f5" stroke="#f5f5f5"></path><path d="M370 499L530 525L468 374Z" fill="#d3bbeb" stroke="#d3bbeb"></path><path d="M296 429L320 482L370 499Z" fill="#d3bbeb" stroke="#d3bbeb"></path><path d="M504 211L367 335L437 369Z" fill="#925cd8" stroke="#925cd8"></path><path d="M437 369L296 429L370 499Z" fill="#f5f5f5" stroke="#f5f5f5"></path><path d="M367 335L296 429L437 369Z" fill="#c7a8e8" stroke="#c7a8e8"></path><path d="M323 600L418 600L370 499Z" fill="#dfceef" stroke="#dfceef"></path><path d="M370 499L418 600L530 525Z" fill="#a16fdc" stroke="#a16fdc"></path><path d="M530 525L539 336L468 374Z" fill="#a16fdc" stroke="#a16fdc"></path><path d="M468 374L504 211L437 369Z" fill="#f5f5f5" stroke="#f5f5f5"></path><path d="M418 600L513 600L530 525Z" fill="#dfceef" stroke="#dfceef"></path><path d="M320 482L323 600L370 499Z" fill="#925cd8" stroke="#925cd8"></path><path d="M210 600L323 600L320 482Z" fill="#ae82e0" stroke="#ae82e0"></path><path d="M601 600L634 518L530 525Z" fill="#dfceef" stroke="#dfceef"></path><path d="M530 525L627 364L539 336Z" fill="#eae1f2" stroke="#eae1f2"></path><path d="M634 518L627 364L530 525Z" fill="#bb95e4" stroke="#bb95e4"></path><path d="M513 600L601 600L530 525Z" fill="#c7a8e8" stroke="#c7a8e8"></path><path d="M627 364L613 313L539 336Z" fill="#7334cf" stroke="#7334cf"></path><path d="M539 336L504 211L468 374Z" fill="#8349d3" stroke="#8349d3"></path><path d="M367 335L232 318L296 429Z" fill="#d3bbeb" stroke="#d3bbeb"></path><path d="M296 429L183 464L320 482Z" fill="#a16fdc" stroke="#a16fdc"></path><path d="M265 266L232 318L367 335Z" fill="#ae82e0" stroke="#ae82e0"></path><path d="M596 230L504 211L539 336Z" fill="#f5f5f5" stroke="#f5f5f5"></path><path d="M337 180L265 266L367 335Z" fill="#bb95e4" stroke="#bb95e4"></path><path d="M162 381L183 464L296 429Z" fill="#925cd8" stroke="#925cd8"></path><path d="M683 261L596 230L613 313Z" fill="#bb95e4" stroke="#bb95e4"></path><path d="M613 313L596 230L539 336Z" fill="#bb95e4" stroke="#bb95e4"></path><path d="M183 464L210 600L320 482Z" fill="#ae82e0" stroke="#ae82e0"></path><path d="M137 313L162 381L232 318Z" fill="#f5f5f5" stroke="#f5f5f5"></path><path d="M232 318L162 381L296 429Z" fill="#a16fdc" stroke="#a16fdc"></path><path d="M183 464L115 492L210 600Z" fill="#7334cf" stroke="#7334cf"></path><path d="M378 166L337 180L367 335Z" fill="#bb95e4" stroke="#bb95e4"></path><path d="M265 266L229 222L232 318Z" fill="#bb95e4" stroke="#bb95e4"></path><path d="M504 211L378 166L367 335Z" fill="#925cd8" stroke="#925cd8"></path><path d="M387 135L378 166L483 127Z" fill="#dfceef" stroke="#dfceef"></path><path d="M733 600L721 534L634 518Z" fill="#dfceef" stroke="#dfceef"></path><path d="M634 518L735 387L627 364Z" fill="#bb95e4" stroke="#bb95e4"></path><path d="M627 364L683 261L613 313Z" fill="#d3bbeb" stroke="#d3bbeb"></path><path d="M721 534L735 387L634 518Z" fill="#c7a8e8" stroke="#c7a8e8"></path><path d="M735 387L683 261L627 364Z" fill="#7334cf" stroke="#7334cf"></path><path d="M337 180L229 222L265 266Z" fill="#d3bbeb" stroke="#d3bbeb"></path><path d="M378 166L331 122L337 180Z" fill="#925cd8" stroke="#925cd8"></path><path d="M337 180L230 122L229 222Z" fill="#a16fdc" stroke="#a16fdc"></path><path d="M483 127L378 166L504 211Z" fill="#7334cf" stroke="#7334cf"></path><path d="M483 127L504 211L564 130Z" fill="#925cd8" stroke="#925cd8"></path><path d="M97 383L183 464L162 381Z" fill="#ae82e0" stroke="#ae82e0"></path><path d="M97 383L115 492L183 464Z" fill="#7334cf" stroke="#7334cf"></path><path d="M564 130L504 211L596 230Z" fill="#bb95e4" stroke="#bb95e4"></path><path d="M601 600L733 600L634 518Z" fill="#d3bbeb" stroke="#d3bbeb"></path><path d="M721 534L776 462L735 387Z" fill="#bb95e4" stroke="#bb95e4"></path><path d="M229 222L137 313L232 318Z" fill="#f5f5f5" stroke="#f5f5f5"></path><path d="M836 600L776 462L721 534Z" fill="#dfceef" stroke="#dfceef"></path><path d="M782 316L731 235L683 261Z" fill="#dfceef" stroke="#dfceef"></path><path d="M731 80L564 130L596 230Z" fill="#eae1f2" stroke="#eae1f2"></path><path d="M387 135L331 122L378 166Z" fill="#dfceef" stroke="#dfceef"></path><path d="M388 0L331 122L387 135Z" fill="#f5f5f5" stroke="#f5f5f5"></path><path d="M137 313L97 383L162 381Z" fill="#dfceef" stroke="#dfceef"></path><path d="M782 316L683 261L735 387Z" fill="#d3bbeb" stroke="#d3bbeb"></path><path d="M683 261L731 235L596 230Z" fill="#bb95e4" stroke="#bb95e4"></path><path d="M817 411L782 316L735 387Z" fill="#8349d3" stroke="#8349d3"></path><path d="M900 479L817 411L776 462Z" fill="#ae82e0" stroke="#ae82e0"></path><path d="M776 462L817 411L735 387Z" fill="#925cd8" stroke="#925cd8"></path><path d="M0 503L83 600L115 492Z" fill="#c7a8e8" stroke="#c7a8e8"></path><path d="M115 492L83 600L210 600Z" fill="#eae1f2" stroke="#eae1f2"></path><path d="M331 122L230 122L337 180Z" fill="#d3bbeb" stroke="#d3bbeb"></path><path d="M229 222L74 190L137 313Z" fill="#a16fdc" stroke="#a16fdc"></path><path d="M0 309L0 433L97 383Z" fill="#d3bbeb" stroke="#d3bbeb"></path><path d="M733 600L836 600L721 534Z" fill="#925cd8" stroke="#925cd8"></path><path d="M0 309L97 383L137 313Z" fill="#d3bbeb" stroke="#d3bbeb"></path><path d="M97 383L0 433L115 492Z" fill="#dfceef" stroke="#dfceef"></path><path d="M900 303L810 213L782 316Z" fill="#dfceef" stroke="#dfceef"></path><path d="M782 316L810 213L731 235Z" fill="#eae1f2" stroke="#eae1f2"></path><path d="M731 235L731 80L596 230Z" fill="#eae1f2" stroke="#eae1f2"></path><path d="M900 303L782 316L817 411Z" fill="#a16fdc" stroke="#a16fdc"></path><path d="M0 433L0 503L115 492Z" fill="#c7a8e8" stroke="#c7a8e8"></path><path d="M230 122L74 190L229 222Z" fill="#c7a8e8" stroke="#c7a8e8"></path><path d="M508 0L388 0L483 127Z" fill="#ae82e0" stroke="#ae82e0"></path><path d="M483 127L388 0L387 135Z" fill="#a16fdc" stroke="#a16fdc"></path><path d="M331 122L285 0L230 122Z" fill="#c7a8e8" stroke="#c7a8e8"></path><path d="M230 122L92 81L74 190Z" fill="#c7a8e8" stroke="#c7a8e8"></path><path d="M508 0L483 127L564 130Z" fill="#eae1f2" stroke="#eae1f2"></path><path d="M620 0L508 0L564 130Z" fill="#d3bbeb" stroke="#d3bbeb"></path><path d="M836 600L900 479L776 462Z" fill="#925cd8" stroke="#925cd8"></path><path d="M74 190L0 309L137 313Z" fill="#bb95e4" stroke="#bb95e4"></path><path d="M900 479L900 412L817 411Z" fill="#ae82e0" stroke="#ae82e0"></path><path d="M0 503L0 600L83 600Z" fill="#bb95e4" stroke="#bb95e4"></path><path d="M810 213L731 80L731 235Z" fill="#d3bbeb" stroke="#d3bbeb"></path><path d="M388 0L285 0L331 122Z" fill="#925cd8" stroke="#925cd8"></path><path d="M836 600L900 600L900 479Z" fill="#a16fdc" stroke="#a16fdc"></path><path d="M900 412L900 303L817 411Z" fill="#8349d3" stroke="#8349d3"></path><path d="M810 213L808 72L731 80Z" fill="#eae1f2" stroke="#eae1f2"></path><path d="M731 80L620 0L564 130Z" fill="#925cd8" stroke="#925cd8"></path><path d="M0 131L0 214L74 190Z" fill="#d3bbeb" stroke="#d3bbeb"></path><path d="M74 190L0 214L0 309Z" fill="#f5f5f5" stroke="#f5f5f5"></path><path d="M285 0L213 0L230 122Z" fill="#bb95e4" stroke="#bb95e4"></path><path d="M132 0L92 81L230 122Z" fill="#a16fdc" stroke="#a16fdc"></path><path d="M900 136L808 72L810 213Z" fill="#f5f5f5" stroke="#f5f5f5"></path><path d="M731 80L723 0L620 0Z" fill="#eae1f2" stroke="#eae1f2"></path><path d="M808 72L723 0L731 80Z" fill="#f5f5f5" stroke="#f5f5f5"></path><path d="M900 303L900 165L810 213Z" fill="#dfceef" stroke="#dfceef"></path><path d="M92 81L0 131L74 190Z" fill="#7334cf" stroke="#7334cf"></path><path d="M0 0L0 131L92 81Z" fill="#a16fdc" stroke="#a16fdc"></path><path d="M213 0L132 0L230 122Z" fill="#a16fdc" stroke="#a16fdc"></path><path d="M900 165L900 136L810 213Z" fill="#dfceef" stroke="#dfceef"></path><path d="M808 72L811 0L723 0Z" fill="#bb95e4" stroke="#bb95e4"></path><path d="M900 0L811 0L808 72Z" fill="#eae1f2" stroke="#eae1f2"></path><path d="M132 0L0 0L92 81Z" fill="#ae82e0" stroke="#ae82e0"></path><path d="M900 136L900 0L808 72Z" fill="#eae1f2" stroke="#eae1f2"></path></g></svg>